<svg height="512" viewBox="0 0 64 64" width="512" xmlns="http://www.w3.org/2000/svg"><g id="Icons"><g><g><g><path d="m28 14h-2c-1.105 0-2-.895-2-2s.895-2 2-2h2z" fill="#f0c8a0"/></g></g><g><g><path d="m36 10h2c1.105 0 2 .895 2 2s-.895 2-2 2h-2z" fill="#f0c8a0"/></g></g><g><g><path d="m38 8.107h-12v6c0 3.314 2.686 6 6 6s6-2.686 6-6z" fill="#f0c8a0"/></g></g><g><g><path d="m32 4c-1.105 0-2 .895-2 2 0-1.215-1.083-2.176-2.336-1.973-.983.16-1.664 1.084-1.664 2.08v8c1.105 0 2-.895 2-2v-3c0-.552.448-1 1-1h6c.552 0 1 .448 1 1v3c0 1.105.895 2 2 2v-9.107c0-.552-.448-1-1-1z" fill="#00325a"/></g></g><g><g><circle cx="29.5" cy="11.5" fill="#00325a" r=".5"/></g></g><g><g><circle cx="34.5" cy="11.5" fill="#00325a" r=".5"/></g></g><g><g><path d="m32 11.5c-.276 0-.5.224-.5.5v2c0 .276.224.5.5.5s.5-.224.5-.5v-2c0-.276-.224-.5-.5-.5z" fill="#00325a"/></g></g><g><g><path d="m32 17c-1.378 0-2.5-1.121-2.5-2.5 0-.276.224-.5.5-.5s.5.224.5.5c0 .827.673 1.5 1.5 1.5s1.5-.673 1.5-1.5c0-.276.224-.5.5-.5s.5.224.5.5c0 1.379-1.121 2.5-2.5 2.5z" fill="#00325a"/></g></g><g><g><path d="m42 24v8h-20v-8c0-2.209 1.791-4 4-4h12c2.209 0 4 1.791 4 4z" fill="#c80a50"/></g></g></g><g><g><path d="m56 54h-48v-28c0-1.105.895-2 2-2h44c1.105 0 2 .895 2 2z" fill="#0a5078"/></g></g><g><g><path d="m21 26h-2c-.552 0-1-.448-1-1s.448-1 1-1h2c.552 0 1 .448 1 1s-.448 1-1 1z" fill="#00325a"/></g></g><g><g><path d="m45 26h-2c-.552 0-1-.448-1-1s.448-1 1-1h2c.552 0 1 .448 1 1s-.448 1-1 1z" fill="#00325a"/></g></g><g><g><path d="m10 51v-24c0-.552.448-1 1-1h42c.552 0 1 .448 1 1v24c0 .552-.448 1-1 1h-42c-.552 0-1-.448-1-1z" fill="#fab400"/></g></g><g><g><path d="m49 40h-2c-.553 0-1-.448-1-1s.447-1 1-1h2c.553 0 1 .448 1 1s-.447 1-1 1z" fill="#c80a50"/></g></g><g><g><path d="m45.707 45.121-1.414-1.414c-.391-.391-.391-1.023 0-1.414s1.023-.391 1.414 0l1.414 1.414c.391.391.391 1.023 0 1.414s-1.023.391-1.414 0z" fill="#00a0c8"/></g></g><g><g><path d="m44.293 35.707c-.391-.391-.391-1.023 0-1.414l1.414-1.414c.391-.391 1.023-.391 1.414 0s.391 1.023 0 1.414l-1.414 1.414c-.391.391-1.023.391-1.414 0z" fill="#00a0c8"/></g></g><g><g><path d="m15 38h2c.553 0 1 .448 1 1s-.447 1-1 1h-2c-.553 0-1-.448-1-1s.447-1 1-1z" fill="#c80a50"/></g></g><g><g><path d="m18.293 32.879 1.414 1.414c.391.391.391 1.023 0 1.414s-1.023.391-1.414 0l-1.414-1.414c-.391-.391-.391-1.023 0-1.414s1.023-.391 1.414 0z" fill="#00a0c8"/></g></g><g><g><path d="m19.707 42.293c.391.391.391 1.023 0 1.414l-1.414 1.414c-.391.391-1.023.391-1.414 0s-.391-1.023 0-1.414l1.414-1.414c.391-.391 1.023-.391 1.414 0z" fill="#00a0c8"/></g></g><g><g><path d="m38 46.5c-1.208 0-2.217.86-2.449 2h-7.101c-.199-.978-.972-1.75-1.95-1.95l-.003-1.05h13.503c.249 0 .46-.183.495-.429l1.43-10c.043-.301-.191-.571-.495-.571h-16.425l-.51-3.571c-.035-.246-.246-.429-.495-.429h-2.153c-.174-.294-.481-.5-.847-.5h-2c-.552 0-1 .448-1 1s.448 1 1 1h2c.366 0 .672-.207.847-.5h1.72s.884 6.197 1.934 13.537v1.514c-1.14.232-2 1.242-2 2.449 0 1.378 1.122 2.5 2.5 2.5 1.207 0 2.217-.86 2.449-2h7.101c.232 1.14 1.242 2 2.449 2 1.379 0 2.5-1.122 2.5-2.5s-1.121-2.5-2.5-2.5z" fill="#dc9600"/></g></g><g><g><path d="m41.43 34-1.43 10h-14l-1.43-10z" fill="#0a5078"/></g></g><g><g><path d="m28 47.5h8v1h-8z" fill="#f0f0f0"/></g></g><g><g><path d="m41.808 33.672c-.095-.109-.233-.172-.378-.172h-16.425l-.51-3.571c-.035-.246-.246-.429-.495-.429h-4v1h3.566s.884 6.197 1.934 13.537v1.963h1l-.004-1.5h13.504c.249 0 .46-.183.495-.429l1.43-10c.02-.144-.023-.289-.117-.399zm-11.978 6.828h-3.825l-.429-3h4.101zm-.305-6 .102 2h-4.193l-.286-2zm-3.091 9-.286-2h3.733l.102 2zm8.582 0h-4.032l-.102-2h4.236zm.153-3h-4.337l-.153-3h4.643zm.203-4h-4.745l-.102-2h4.948zm4.194 7h-3.549l.102-2h3.734zm.429-3h-3.825l.153-3h4.102zm.573-4h-4.194l.102-2h4.379z" fill="#f0f0f0"/></g></g><g><g><circle cx="26" cy="48" fill="#0a5078" r="2.5"/></g></g><g><g><circle cx="26" cy="48" fill="#00325a" r="1.5"/></g></g><g><g><path d="m7 60h50c1.657 0 3-1.343 3-3v-2c0-.552-.448-1-1-1h-54c-.552 0-1 .448-1 1v2c0 1.657 1.343 3 3 3z" fill="#00a0c8"/></g></g><g><g><path d="m21 25h-2c-.552 0-1-.448-1-1s.448-1 1-1h2c.552 0 1 .448 1 1s-.448 1-1 1z" fill="#f0c8a0"/></g></g><g><g><path d="m45 25h-2c-.552 0-1-.448-1-1s.448-1 1-1h2c.552 0 1 .448 1 1s-.448 1-1 1z" fill="#f0c8a0"/></g></g><g><g><path d="m36 56h-8c-.552 0-1-.448-1-1v-1h10v1c0 .552-.448 1-1 1z" fill="#0082aa"/></g></g><g><g><circle cx="38" cy="48" fill="#00325a" r="2"/></g></g><g><g><circle cx="26" cy="48" fill="#f0f0f0" r=".5"/></g></g><g><g><circle cx="38" cy="48" fill="#f0f0f0" r=".5"/></g></g><g><g><path d="m38 50.5c-1.379 0-2.5-1.122-2.5-2.5s1.121-2.5 2.5-2.5 2.5 1.122 2.5 2.5-1.121 2.5-2.5 2.5zm0-4c-.827 0-1.5.673-1.5 1.5s.673 1.5 1.5 1.5 1.5-.673 1.5-1.5-.673-1.5-1.5-1.5z" fill="#0a5078"/></g></g><g><g><path d="m21 31h-2c-.552 0-1-.448-1-1s.448-1 1-1h2c.552 0 1 .448 1 1s-.448 1-1 1z" fill="#0a5078"/></g></g></g></svg>