<svg id="Capa_1" enable-background="new 0 0 512 512" height="512" viewBox="0 0 512 512" width="512" xmlns="http://www.w3.org/2000/svg"><g><path d="m377 472h-370c-3.866 0-7-3.134-7-7v-370c0-3.866 3.134-7 7-7h145.258l39.742 10 39.742-10h152.258v377c0 3.866-3.134 7-7 7z" fill="#edba94"/><path d="m0 95v370c0 3.866 3.134 7 7 7h13.604v-384h-13.604c-3.866 0-7 3.134-7 7z" fill="#e5a87f"/><path d="m221.823 189.429-26.904-12.343c-1.853-.85-3.985-.85-5.838 0l-26.904 12.343c-4.637 2.127-9.919-1.261-9.919-6.362v-95.067h79.484v95.066c0 5.102-5.282 8.49-9.919 6.363z" fill="#fd6930"/><path d="m108.958 359.388-23.949-23.949c-2.734-2.734-7.166-2.734-9.899 0l-23.949 23.949c-4.41 4.41-1.287 11.95 4.95 11.95h.949c3.866 0 7 3.134 7 7v55.371c0 3.866 3.134 7 7 7h18c3.866 0 7-3.134 7-7v-55.371c0-3.866 3.134-7 7-7h.949c6.235-.001 9.358-7.541 4.949-11.95z" fill="#f1f6f7"/><path d="m300 88v217c0 14.888 12.112 27 27 27h57v-244z" fill="#e5a87f"/><path d="m505 312h-178c-3.866 0-7-3.134-7-7v-242c0-3.866 3.134-7 7-7h25l32 10h63.505l32.495-10h25c3.866 0 7 3.134 7 7v242c0 3.866-3.134 7-7 7z" fill="#9dc6fb"/><path d="m473 280h-114c-3.866 0-7-3.134-7-7v-217h128v217c0 3.866-3.134 7-7 7z" fill="#f1f6f7"/><path d="m440.505 72h-49.505c-3.866 0-7-3.134-7-7v-18c0-3.866 3.134-7 7-7h49.505c3.866 0 7 3.134 7 7v18c0 3.866-3.134 7-7 7z" fill="#ffe17d"/><path d="m345 440.709h-82c-3.866 0-7-3.134-7-7v-18.709c0-3.866 3.134-7 7-7h82c3.866 0 7 3.134 7 7v18.709c0 3.866-3.134 7-7 7z" fill="#e5a87f"/><g><g><path d="m352 383.713h-96c-4.267 0-7.726-3.459-7.726-7.726s3.459-7.726 7.726-7.726h96c4.268 0 7.726 3.459 7.726 7.726.001 4.267-3.458 7.726-7.726 7.726z" fill="#e5a87f"/></g></g><g><g><g><path d="m448 111.726h-38.158c-4.268 0-7.726-3.459-7.726-7.726s3.459-7.726 7.726-7.726h38.158c4.268 0 7.726 3.459 7.726 7.726s-3.458 7.726-7.726 7.726z" fill="#897e8b"/></g><g><path d="m448 143.727h-38.158c-4.268 0-7.726-3.459-7.726-7.726s3.459-7.726 7.726-7.726h38.158c4.268 0 7.726 3.459 7.726 7.726s-3.458 7.726-7.726 7.726z" fill="#897e8b"/></g><g><path d="m448 175.726h-38.158c-4.268 0-7.726-3.459-7.726-7.726s3.459-7.726 7.726-7.726h38.158c4.268 0 7.726 3.459 7.726 7.726s-3.458 7.726-7.726 7.726z" fill="#897e8b"/></g><g><path d="m448 207.727h-38.158c-4.268 0-7.726-3.459-7.726-7.726s3.459-7.726 7.726-7.726h38.158c4.268 0 7.726 3.459 7.726 7.726s-3.458 7.726-7.726 7.726z" fill="#897e8b"/></g><g><path d="m448 239.726h-38.158c-4.268 0-7.726-3.459-7.726-7.726s3.459-7.726 7.726-7.726h38.158c4.268 0 7.726 3.459 7.726 7.726s-3.458 7.726-7.726 7.726z" fill="#897e8b"/></g><g fill="#897e8b"><path d="m384 224.274c4.267 0 7.726 3.459 7.726 7.726 0 4.267-3.459 7.726-7.726 7.726-4.267 0-7.726-3.459-7.726-7.726 0-4.267 3.459-7.726 7.726-7.726z"/><path d="m384 192.274c4.267 0 7.726 3.459 7.726 7.726 0 4.267-3.459 7.726-7.726 7.726-4.267 0-7.726-3.459-7.726-7.726 0-4.267 3.459-7.726 7.726-7.726z"/><path d="m384 160.274c4.267 0 7.726 3.459 7.726 7.726 0 4.267-3.459 7.726-7.726 7.726-4.267 0-7.726-3.459-7.726-7.726 0-4.267 3.459-7.726 7.726-7.726z"/><path d="m384 128.274c4.267 0 7.726 3.459 7.726 7.726 0 4.267-3.459 7.726-7.726 7.726-4.267 0-7.726-3.459-7.726-7.726 0-4.267 3.459-7.726 7.726-7.726z"/><path d="m384 96.274c4.267 0 7.726 3.459 7.726 7.726 0 4.267-3.459 7.726-7.726 7.726-4.267 0-7.726-3.459-7.726-7.726 0-4.267 3.459-7.726 7.726-7.726z"/></g></g></g></g></svg>