<svg id="Flat" height="512" viewBox="0 0 512 512" width="512" xmlns="http://www.w3.org/2000/svg"><path d="m232 88v176a32 32 0 0 1 -32 32h-144a32 32 0 0 1 -32-32v-208a32 32 0 0 1 32-32h112z" fill="#e1e3e6"/><g fill="#c3c6c7"><path d="m232 88h-32a32 32 0 0 1 -32-32v-32z"/><path d="m184 144h-64a8 8 0 0 1 0-16h64a8 8 0 0 1 0 16z"/><path d="m136 192h-64a8 8 0 0 1 0-16h64a8 8 0 0 1 0 16z"/><path d="m88 144h-16a8 8 0 0 1 0-16h16a8 8 0 0 1 0 16z"/><path d="m184 192h-16a8 8 0 0 1 0-16h16a8 8 0 0 1 0 16z"/><path d="m104 240h-32a8 8 0 0 1 0-16h32a8 8 0 0 1 0 16z"/><path d="m120 96h-48a8 8 0 0 1 0-16h48a8 8 0 0 1 0 16z"/></g><path d="m488 88v176a32 32 0 0 1 -32 32h-144a32 32 0 0 1 -32-32v-208a32 32 0 0 1 32-32h112z" fill="#e1e3e6"/><path d="m488 88h-32a32 32 0 0 1 -32-32v-32z" fill="#c3c6c7"/><path d="m440 144h-64a8 8 0 0 1 0-16h64a8 8 0 0 1 0 16z" fill="#c3c6c7"/><path d="m392 192h-64a8 8 0 0 1 0-16h64a8 8 0 0 1 0 16z" fill="#c3c6c7"/><path d="m440 240h-64a8 8 0 0 1 0-16h64a8 8 0 0 1 0 16z" fill="#c3c6c7"/><path d="m344 144h-16a8 8 0 0 1 0-16h16a8 8 0 0 1 0 16z" fill="#c3c6c7"/><path d="m440 192h-16a8 8 0 0 1 0-16h16a8 8 0 0 1 0 16z" fill="#c3c6c7"/><path d="m376 96h-48a8 8 0 0 1 0-16h48a8 8 0 0 1 0 16z" fill="#c3c6c7"/><path d="m360 280v176a32 32 0 0 1 -32 32h-144a32 32 0 0 1 -32-32v-208a32 32 0 0 1 32-32h112z" fill="#e9eef2"/><path d="m360 280h-32a32 32 0 0 1 -32-32v-32z" fill="#c3c6c7"/><circle cx="224" cy="352" fill="#c3c6c7" r="8"/><circle cx="256" cy="352" fill="#c3c6c7" r="8"/><circle cx="288" cy="352" fill="#c3c6c7" r="8"/><path d="m104 400h-48a8 8 0 0 1 -8-8v-48a8 8 0 0 1 16 0v40h40a8 8 0 0 1 0 16z" fill="#6ed2f0"/><path d="m456 400h-48a8 8 0 0 1 0-16h40v-40a8 8 0 0 1 16 0v48a8 8 0 0 1 -8 8z" fill="#6ed2f0"/></svg>