<svg id="Layer_3" enable-background="new 0 0 64 64" height="512" viewBox="0 0 64 64" width="512" xmlns="http://www.w3.org/2000/svg"><g><circle cx="32" cy="30" fill="#c7e2fc" r="28"/><path d="m5.859 19.946c1.122-2.915 2.717-5.595 4.692-7.946h4.949c1.381 0 2.5 1.119 2.5 2.5 0 1.381-1.119 2.5-2.5 2.5h-2c-.828 0-1.5.672-1.5 1.5 0 .828-.672 1.5-1.5 1.5h-4.5z" fill="#669e4f"/><path d="m59.841 27h-14.841v-7c0-1.105.895-2 2-2 1.105 0 2-.895 2-2v-1c0-1.105.895-2 2-2h3.25l-.066-.086c3.072 3.983 5.096 8.816 5.657 14.086z" fill="#96cc7f"/><path d="m23 3.478v4.522c0 1.63.792 3.065 2 3.977v3.102c0 1.109.932 1.898 2.041 1.921 1.085.022 1.959.909 1.959 2 0 1.105-.895 2-2 2h-7-.366c-.918 0-1.779.465-2.253 1.194v5.806h14.619v-3.442c0-.823.638-1.58 1.461-1.559.846.022 1.539-.657 1.539-1.499 0-.828.672-1.5 1.5-1.5h2.5c1.105 0 2-.895 2-2l-.001-14.522v-.001c-2.824-.957-5.851-1.477-8.999-1.477s-6.175.52-9 1.478z" fill="#78b75b"/><path d="m54 44v12c0 1.105-.895 2-2 2-1.105 0-2-.895-2-2v-4c0-1.105-.895-2-2-2-1.105 0-2 .895-2 2v4c0 1.105-.895 2-2 2-1.105 0-2-.895-2-2v-12c0 1.105-.895 2-2 2-1.105 0-2-.895-2-2v-7c0-2.761 2.239-5 5-5h10c2.761 0 5 2.239 5 5v7c0 1.105-.895 2-2 2-1.105 0-2-.895-2-2z" fill="#758190"/><circle cx="48" cy="27" fill="#758190" r="5"/><circle cx="40" cy="29" fill="#8892a0" r="5"/><path d="m46 46v12c0 1.105-.895 2-2 2-1.105 0-2-.895-2-2v-4c0-1.105-.895-2-2-2-1.105 0-2 .895-2 2v4c0 1.105-.895 2-2 2-1.105 0-2-.895-2-2v-12c0 1.105-.895 2-2 2-1.105 0-2-.895-2-2v-7c0-2.761 2.239-5 5-5h10c2.761 0 5 2.239 5 5v7c0 1.105-.895 2-2 2-1.105 0-2-.895-2-2z" fill="#8892a0"/><path d="m10 44v12c0 1.105.895 2 2 2 1.105 0 2-.895 2-2v-4c0-1.105.895-2 2-2 1.105 0 2 .895 2 2v4c0 1.105.895 2 2 2 1.105 0 2-.895 2-2v-12c0 1.105.895 2 2 2 1.105 0 2-.895 2-2v-7c0-2.761-2.239-5-5-5h-10c-2.761 0-5 2.239-5 5v7c0 1.105.895 2 2 2 1.105 0 2-.895 2-2z" fill="#758190"/><circle cx="16" cy="27" fill="#758190" r="5"/><circle cx="24" cy="29" fill="#8892a0" r="5"/><path d="m18 46v12c0 1.105.895 2 2 2 1.105 0 2-.895 2-2v-4c0-1.105.895-2 2-2 1.105 0 2 .895 2 2v4c0 1.105.895 2 2 2 1.105 0 2-.895 2-2v-12c0 1.105.895 2 2 2 1.105 0 2-.895 2-2v-7c0-2.761-2.239-5-5-5h-10c-2.761 0-5 2.239-5 5v7c0 1.105.895 2 2 2 1.105 0 2-.895 2-2z" fill="#8892a0"/><g fill="#a8b0bc"><path d="m38 48v12c0 1.105-.895 2-2 2-1.105 0-2-.895-2-2v-4c0-1.105-.895-2-2-2-1.105 0-2 .895-2 2v4c0 1.105-.895 2-2 2-1.105 0-2-.895-2-2v-12c0 1.105-.895 2-2 2-1.105 0-2-.895-2-2v-7c0-2.761 2.239-5 5-5h10c2.761 0 5 2.239 5 5v7c0 1.105-.895 2-2 2-1.105 0-2-.895-2-2z"/><circle cx="32" cy="31" r="5"/></g></g></svg>