<svg id="Layer_1" enable-background="new 0 0 512 512" height="512" viewBox="0 0 512 512" width="512" xmlns="http://www.w3.org/2000/svg"><g><g><path d="m437.019 415.806-166.019-166.019v-234.787c0-8.284-6.716-15-15-15-141.385 0-256 114.615-256 256s114.615 256 256 256c70.692 0 134.692-28.654 181.019-74.981 5.858-5.857 5.858-15.355 0-21.213z" fill="#00e4ef"/><path d="m437.019 437.019c5.858-5.858 5.858-15.355 0-21.213l-166.019-166.019v-8.787l-196.019 196.019c46.327 46.327 110.327 74.981 181.019 74.981s134.692-28.654 181.019-74.981z" fill="#5ecbf1"/><path d="m497 241h-226c-8.284 0-15 6.716-15 15l181.019 181.019c46.327-46.327 74.981-110.327 74.981-181.019 0-8.284-6.716-15-15-15z" fill="#ff5c5c"/><path d="m256 0v256h256c0-141.385-114.615-256-256-256z" fill="#ffe705"/><path d="m437.019 74.981-181.019 181.019h256c0-70.692-28.654-134.692-74.981-181.019z" fill="#ffcb00"/></g><path d="m71.233 416.667c-21.854 0-39.634-17.78-39.634-39.633s17.781-39.634 39.634-39.634 39.633 17.78 39.633 39.633-17.779 39.634-39.633 39.634z" fill="#f5a582"/><path d="m127.467 512h-112.467c-8.284 0-15-6.716-15-15v-9.1c0-39.278 31.955-71.233 71.233-71.233s71.233 31.955 71.233 71.233v9.1c.001 8.284-6.715 15-14.999 15z" fill="#ff5c5c"/><path d="m71.233 337.4c21.854 0 39.633 17.78 39.633 39.633s-17.779 39.633-39.633 39.633z" fill="#e1876e"/><path d="m127.467 512c8.284 0 15-6.716 15-15v-9.1c0-39.278-31.955-71.233-71.233-71.233v95.333z" fill="#ea1c81"/><path d="m440.767 79.267c-21.854 0-39.634-17.78-39.634-39.633s17.78-39.634 39.634-39.634 39.633 17.78 39.633 39.633-17.78 39.634-39.633 39.634z" fill="#ffdcd7"/><path d="m497 174.6h-112.467c-8.284 0-15-6.716-15-15v-9.1c0-39.278 31.955-71.233 71.233-71.233s71.234 31.955 71.234 71.233v9.1c0 8.284-6.716 15-15 15z" fill="#00e4ef"/><path d="m440.767 0c21.854 0 39.633 17.78 39.633 39.633s-17.779 39.633-39.633 39.633z" fill="#ffb9be"/><path d="m497 174.6c8.284 0 15-6.716 15-15v-9.1c0-39.278-31.955-71.233-71.233-71.233v95.333z" fill="#5ecbf1"/><path d="m440.767 416.667c-21.854 0-39.634-17.78-39.634-39.633s17.78-39.633 39.634-39.633 39.633 17.78 39.633 39.633-17.78 39.633-39.633 39.633z" fill="#c3551e"/><path d="m497 512h-112.467c-8.284 0-15-6.716-15-15v-9.1c0-39.278 31.955-71.233 71.233-71.233s71.234 31.955 71.234 71.233v9.1c0 8.284-6.716 15-15 15z" fill="#ffcb00"/><path d="m440.767 337.4c21.854 0 39.633 17.78 39.633 39.633s-17.779 39.633-39.633 39.633z" fill="#9b3c0f"/><path d="m497 512c8.284 0 15-6.716 15-15v-9.1c0-39.278-31.955-71.233-71.233-71.233v95.333z" fill="#ffa07a"/></g></svg>