<svg height="512pt" viewBox="-13 0 512 512" width="512pt" xmlns="http://www.w3.org/2000/svg"><path d="m245.210938 44.21875h70.570312v38.570312h-70.570312zm0 0" fill="#a2f9f9"/><path d="m230.441406 40.003906c0 2.898438 2.371094 5.269532 5.273438 5.269532h89.5625c2.898437 0 5.273437-2.371094 5.273437-5.269532v-34.734375c0-2.898437-2.375-5.269531-5.273437-5.269531h-89.5625c-2.902344 0-5.273438 2.371094-5.273438 5.269531zm0 0" fill="#0481bf"/><path d="m342.578125 84.546875c0-.9375.035156-1.863281.070313-2.792969-.273438-.007812-.550782-.019531-.828126-.019531h-122.644531c-14.492187 0-26.28125 11.816406-26.28125 26.339844v59.597656h175.207031v-28.472656c-15.585937-13.09375-25.523437-32.726563-25.523437-54.652344zm0 0" fill="#c7fffd"/><path d="m366.839844 510.945312c-2.328125 0-4.21875-1.890624-4.21875-4.214843v-46.476563l-13.679688-130.34375h-157.300781v24.609375h58.570313c2.445312 0 4.4375 1.996094 4.4375 4.449219v37.433594c0 2.453125-1.992188 4.449218-4.4375 4.449218h-14.007813v105.644532c0 2.453125-1.988281 4.449218-4.4375 4.449218h-1.566406v1.054688h139.152343v-1.054688zm0 0" fill="#c7fffd"/><path d="m335.40625 200.945312c-.171875-1.632812.304688-3.167968 1.34375-4.324218 1.035156-1.148438 2.507812-1.78125 4.144531-1.78125h26.910157c.195312-1.304688.296874-2.628906.296874-3.972656v-23.195313h-175.207031v23.195313c0 4.609374 1.191407 9.011718 3.332031 12.855468h99.476563c3.53125 0 6.421875 2.894532 6.421875 6.4375v73.398438c0 3.542968-2.890625 6.4375-6.421875 6.4375h-100.132813c-2.5 4.070312-3.929687 8.816406-3.929687 13.769531v26.144531h157.300781zm0 0" fill="#0481bf"/><g fill="#75eae7"><path d="m209.003906 215.164062c-5.546875-2.332031-9.976562-6.410156-12.777344-11.441406h99.476563c3.53125 0 6.421875 2.894532 6.421875 6.4375v73.398438c0 3.542968-2.890625 6.4375-6.421875 6.4375h-100.136719c2.988282-4.859375 7.511719-8.761719 13.03125-10.863282 4.863282-1.847656 8.074219-6.515624 8.074219-11.726562v-40.675781c0-5.046875-3.023437-9.609375-7.667969-11.566407zm0 0"/><path d="m327 487.195312c-4.367188 0-7.90625-3.539062-7.90625-7.90625v-99.152343c0-4.367188 3.539062-7.90625 7.90625-7.90625s7.90625 3.539062 7.90625 7.90625v99.152343c0 4.367188-3.539062 7.90625-7.90625 7.90625zm0 0"/><path d="m295.996094 487.195312c-4.367188 0-7.90625-3.539062-7.90625-7.90625v-99.152343c0-4.367188 3.539062-7.90625 7.90625-7.90625 4.367187 0 7.90625 3.539062 7.90625 7.90625v99.152343c0 4.367188-3.539063 7.90625-7.90625 7.90625zm0 0"/><path d="m264.996094 487.195312c-4.367188 0-7.90625-3.539062-7.90625-7.90625v-99.152343c0-4.367188 3.539062-7.90625 7.90625-7.90625 4.367187 0 7.90625 3.539062 7.90625 7.90625v99.152343c0 4.367188-3.539063 7.90625-7.90625 7.90625zm0 0"/><path d="m236.203125 400.851562v86.027344c3.289063-.957031 5.695313-3.988281 5.695313-7.589844v-78.4375zm0 0"/></g><path d="m361.566406 506.730469c0 2.898437 2.371094 5.269531 5.273438 5.269531h86.640625c2.898437 0 5.269531-2.371094 5.269531-5.269531v-48.230469h-97.183594zm0 0" fill="#89c947"/><path d="m336.140625 218.050781 25.425781 242.257813h97.183594l25.429688-242.257813zm0 0" fill="#d5e962"/><path d="m479.425781 193.785156h-138.53125c-4.015625 0-6.957031 3.273438-6.535156 7.273438l1.917969 18.316406h147.761718l1.925782-18.316406c.417968-4-2.523438-7.273438-6.539063-7.273438zm0 0" fill="#89c947"/><path d="m431.285156 375.707031c0 2.898438-2.371094 5.269531-5.269531 5.269531h-31.710937c-2.898438 0-5.269532-2.371093-5.269532-5.269531v-79.074219c0-2.898437 2.371094-5.269531 5.269532-5.269531h31.710937c2.898437 0 5.269531 2.371094 5.269531 5.269531zm0 0" fill="#fff"/><path d="m422.652344 270.351562h-24.984375c-4.363281 0-7.90625-3.539062-7.90625-7.90625 0-4.367187 3.542969-7.90625 7.90625-7.90625h24.984375c4.363281 0 7.902344 3.539063 7.902344 7.90625.003906 4.363282-3.535157 7.90625-7.902344 7.90625zm0 0" fill="#368c0e"/><path d="m22.140625 400.414062v106.082032c0 3.027344 2.46875 5.503906 5.492187 5.503906h204.136719c3.019531 0 5.488281-2.476562 5.488281-5.503906v-106.082032zm0 0" fill="#ffb98a"/><path d="m237.257812 429.429688h-79.308593c-3.019531 0-5.492188 2.476562-5.492188 5.503906v37.433594c0 3.027343 2.472657 5.503906 5.492188 5.503906h79.308593zm0 0" fill="#fff"/><path d="m250.210938 353.46875h-241.023438c-3.023438 0-5.492188 2.472656-5.492188 5.503906v37.429688c0 3.027344 2.46875 5.503906 5.492188 5.503906h241.023438c3.019531 0 5.492187-2.476562 5.492187-5.503906v-37.429688c0-3.03125-2.472656-5.503906-5.492187-5.503906zm0 0" fill="#fb8276"/><path d="m59.097656 448.34375h-9.886718c-4.363282 0-7.90625-3.539062-7.90625-7.902344 0-4.367187 3.542968-7.90625 7.90625-7.90625h9.886718c4.367188 0 7.90625 3.539063 7.90625 7.90625 0 4.363282-3.539062 7.902344-7.90625 7.902344zm0 0" fill="#ef5050"/><path d="m103.765625 472.566406h-54.554687c-4.363282 0-7.90625-3.542968-7.90625-7.90625 0-4.367187 3.542968-7.90625 7.90625-7.90625h54.554687c4.363281 0 7.90625 3.539063 7.90625 7.90625 0 4.363282-3.542969 7.90625-7.90625 7.90625zm0 0" fill="#ef5050"/><path d="m103.765625 448.34375h-23.796875c-4.367188 0-7.90625-3.539062-7.90625-7.902344 0-4.367187 3.539062-7.90625 7.90625-7.90625h23.796875c4.363281 0 7.90625 3.539063 7.90625 7.90625 0 4.363282-3.542969 7.902344-7.90625 7.902344zm0 0" fill="#ef5050"/><path d="m89.605469 145.066406c1.78125-2.289062 4.699219-2.289062 6.484375-.003906l19.269531 24.695312c1.785156 2.285157 5.597656 3.863282 8.472656 3.503907l31.171875-3.882813c2.875-.359375 4.933594 1.699219 4.570313 4.578125l-3.894531 31.023438c-.359376 2.878906 1.21875 6.683593 3.511718 8.457031l24.785156 19.210938c2.289063 1.777343 2.289063 4.679687 0 6.457031l-24.785156 19.207031c-2.292968 1.777344-3.871094 5.582031-3.511718 8.457031l3.894531 31.03125c.363281 2.875-1.695313 4.933594-4.570313 4.578125l-31.171875-3.890625c-2.875-.355469-6.6875 1.21875-8.472656 3.503907l-19.269531 24.695312c-1.785156 2.285156-4.703125 2.285156-6.484375 0l-19.269531-24.695312c-1.78125-2.28125-5.59375-3.859376-8.472657-3.503907l-31.171875 3.886719c-2.875.355469-4.933594-1.703125-4.570312-4.578125l3.894531-31.027344c.359375-2.875-1.21875-6.679687-3.507813-8.457031l-24.789062-19.207031c-2.292969-1.777344-2.292969-4.679688 0-6.457031l24.789062-19.210938c2.289063-1.773438 3.871094-5.578125 3.507813-8.457031l-3.894531-31.027344c-.363282-2.875 1.695312-4.933594 4.570312-4.578125l31.171875 3.886719c2.875.359375 6.691407-1.21875 8.472657-3.503907zm0 0" fill="#ffc502"/><path d="m134.570312 254.992188c0 8.800781-5.777343 15.9375-12.902343 15.9375s-12.898438-7.136719-12.898438-15.9375c0-8.796876 5.773438-15.929688 12.898438-15.929688s12.902343 7.132812 12.902343 15.929688zm0 0" fill="#fff"/><path d="m76.929688 216.761719c0-8.800781-5.777344-15.933594-12.902344-15.933594s-12.902344 7.132813-12.902344 15.933594 5.777344 15.933593 12.902344 15.933593 12.902344-7.132812 12.902344-15.933593zm0 0" fill="#fff"/><path d="m121.667969 278.835938c-11.472657 0-20.804688-10.695313-20.804688-23.84375 0-13.140626 9.332031-23.835938 20.804688-23.835938 11.472656 0 20.808593 10.695312 20.808593 23.835938 0 13.148437-9.335937 23.84375-20.808593 23.84375zm0-31.867188c-2.355469 0-4.992188 3.433594-4.992188 8.023438 0 4.597656 2.636719 8.027343 4.992188 8.027343 2.359375 0 4.996093-3.429687 4.996093-8.027343 0-4.589844-2.636718-8.023438-4.996093-8.023438zm0 0" fill="#f7931e"/><path d="m64.027344 240.601562c-11.476563 0-20.808594-10.695312-20.808594-23.839843s9.332031-23.839844 20.808594-23.839844c11.472656 0 20.808594 10.695313 20.808594 23.839844s-9.335938 23.839843-20.808594 23.839843zm0-31.867187c-2.359375 0-5 3.429687-5 8.027344 0 4.59375 2.640625 8.023437 5 8.023437 2.355468 0 4.996094-3.433594 4.996094-8.023437 0-4.597657-2.636719-8.027344-4.996094-8.027344zm0 0" fill="#f7931e"/><path d="m77.527344 277.164062c-1.136719 0-2.292969-.246093-3.386719-.765624-3.945313-1.875-5.625-6.589844-3.75-10.53125l31.710937-66.757813c1.875-3.945313 6.585938-5.625 10.535157-3.75 3.941406 1.871094 5.621093 6.589844 3.746093 10.53125l-31.710937 66.757813c-1.351563 2.851562-4.1875 4.515624-7.144531 4.515624zm0 0" fill="#f7931e"/><path d="m486.003906 84.546875c0 39.96875-32.347656 72.363281-72.238281 72.363281-39.894531 0-72.238281-32.394531-72.238281-72.363281 0-39.964844 32.34375-72.363281 72.238281-72.363281 39.890625 0 72.238281 32.398437 72.238281 72.363281zm0 0" fill="#fcb400"/><path d="m464.878906 84.546875c0-28.277344-22.886718-51.199219-51.113281-51.199219-28.230469 0-51.113281 22.921875-51.113281 51.199219s22.882812 51.203125 51.113281 51.203125c28.226563 0 51.113281-22.925781 51.113281-51.203125zm0 0" fill="#fcdb67"/><path d="m439.929688 94.574219c0-10.179688-8.273438-18.460938-18.445313-18.460938h-15.4375c-1.453125 0-2.632813-1.191406-2.632813-2.652343 0-1.460938 1.179688-2.648438 2.632813-2.648438h19.738281c4.367188 0 7.90625-3.539062 7.90625-7.90625s-3.539062-7.90625-7.90625-7.90625h-4.113281v-2.382812c0-4.363282-3.539063-7.902344-7.90625-7.902344s-7.90625 3.539062-7.90625 7.902344v2.394531c-10.082031.101562-18.257813 8.332031-18.257813 18.449219 0 10.183593 8.273438 18.464843 18.445313 18.464843h15.4375c1.453125 0 2.632813 1.1875 2.632813 2.648438 0 1.460937-1.179688 2.652343-2.632813 2.652343h-23.378906c-4.367188 0-7.90625 3.539063-7.90625 7.90625 0 4.363282 3.539062 7.902344 7.90625 7.902344h7.753906v.246094c0 4.367188 3.539063 7.90625 7.90625 7.90625s7.90625-3.539062 7.90625-7.90625v-.253906c10.082031-.101563 18.257813-8.339844 18.257813-18.453125zm0 0" fill="#775436"/></svg>