<svg id="Layer_1" height="512" viewBox="0 0 512 512" width="512" xmlns="http://www.w3.org/2000/svg" data-name="Layer 1"><path d="m286.52 296.64v.01a109.268 109.268 0 0 0 -27.95 22.83 69.656 69.656 0 0 1 17.03-37.09 54.473 54.473 0 0 1 10.92 14.25z" fill="#867af4"/><path d="m152.38 11.92a80.218 80.218 0 0 1 80.04 85.74l-1.76 25.51a5.509 5.509 0 0 1 -.06.57 7.814 7.814 0 0 1 -2.39 4.58l-12.74 5.96-3.68-15.18a89.839 89.839 0 0 0 -36.84-53.16 71.661 71.661 0 0 1 -66.05 29.72l-6.04-.65a3.116 3.116 0 0 0 -3.44 2.84l-2.67 33.39c-.09 1.11-19.29-3.4-19.29-3.4a6.261 6.261 0 0 1 -3.23-4.13 4.931 4.931 0 0 1 -.16-1.02l-1.72-25.03c-.13-1.89-.19-3.76-.19-5.62a80.217 80.217 0 0 1 80.22-80.12z" fill="#6d7486"/><path d="m243.58 134.8a19.46 19.46 0 0 1 .55 4.61 19.319 19.319 0 0 1 -15.92 19.01v.12a75.9 75.9 0 0 1 -41.21 67.48v.01a75.862 75.862 0 0 1 -110.46-67.49v-.12a19.34 19.34 0 0 1 -15.4-23.62 14.537 14.537 0 0 1 13-11.07l.09-.02a6.261 6.261 0 0 0 3.23 4.13s19.2 4.51 19.29 3.4l2.67-33.39a3.116 3.116 0 0 1 3.44-2.84l6.04.65a71.661 71.661 0 0 0 66.05-29.72 89.839 89.839 0 0 1 36.84 53.16l3.68 15.18 12.74-5.96a7.814 7.814 0 0 0 2.39-4.58h.02a14.54 14.54 0 0 1 12.96 11.06z" fill="#ffd8b7"/><path d="m117.8 254.71v-28.15l.2-.41a75.934 75.934 0 0 0 69-.12v46.37l-.06.04a59.711 59.711 0 0 1 -69.14-.04z" fill="#e5bc93"/><path d="m477.65 235.95 3.05 18.17-.8.19-28.33 28.05-1.77-20.4a1.53 1.53 0 0 1 .51-1.27l26.13-25.14a.728.728 0 0 1 1.21.4z" fill="#7ce5e9"/><path d="m499.46 257.6a.725.725 0 0 1 .38 1.23l-26.36 25.56a1.555 1.555 0 0 1 -1.28.43l-20.63-2.46 28.33-28.05.8-.19z" fill="#6addc7"/><path d="m258.57 319.48a109.07 109.07 0 1 1 -27 71.76 109.268 109.268 0 0 1 27-71.76z" fill="#fb6771"/><path d="m275.6 282.39a69.656 69.656 0 0 0 -17.03 37.09 109.07 109.07 0 0 0 -25.79 88.04h-27.65v-.62l19.81-81.19-10.79-13.54 14.96-18.45-42.11-38.93v-6.96l75.66 25.55a54.509 54.509 0 0 1 12.94 9.01z" fill="#604af3"/><path d="m229.11 293.72-14.96 18.45 10.79 13.54-19.81 81.19v.62h-18.13v-.98-134.14-17.61z" fill="#867af4"/><path d="m187 406.54v.98h-69.2v-135.12a59.711 59.711 0 0 0 69.14.04l.06-.04z" fill="#d4e1f4"/><path d="m117.8 406.54v.98h-18.22v-.63l-19.8-81.18 10.78-13.54-14.96-18.45 42.2-39.01v17.69z" fill="#867af4"/><path d="m117.8 247.83v6.88l-42.2 39.01 14.96 18.45-10.78 13.54 19.8 81.18v.63h-52.21v-78a71.985 71.985 0 0 0 -17.88-47.48 54.818 54.818 0 0 1 12.56-8.66z" fill="#604af3"/><path d="m47.37 329.52v78h-35.43v-89.66a54.786 54.786 0 0 1 17.55-35.82 71.985 71.985 0 0 1 17.88 47.48z" fill="#867af4"/><path d="m379.69 353.51a54.459 54.459 0 1 1 -39.28-16.75 54.24 54.24 0 0 1 39.28 16.75z" fill="#d8ff33"/><path d="m354.28 378.67a18.712 18.712 0 1 1 -13.87-6.16 18.617 18.617 0 0 1 13.87 6.16z" fill="#c6e02d"/><path d="m148 226.15a75.962 75.962 0 0 1 -41.46-67.61v-.12l-15.4-23.62a14.769 14.769 0 0 1 1.507-3.789c-5.664-.935-15.187-3.171-15.187-3.171a6.261 6.261 0 0 1 -3.23-4.13l-.09.02a14.537 14.537 0 0 0 -13 11.07 19.34 19.34 0 0 0 15.4 23.62v.12a75.87 75.87 0 0 0 90.842 74.348 75.328 75.328 0 0 1 -19.382-6.738z" fill="#efc2a0"/><path d="m262.78 407.52a108.955 108.955 0 0 1 53.74-110.87 108.019 108.019 0 0 1 38.89-13.227 109.783 109.783 0 0 0 -15-1.033 108.845 108.845 0 1 0 0 217.69 109.7 109.7 0 0 0 14.972-1.03 108.909 108.909 0 0 1 -92.602-91.53z" fill="#ffa9b1"/><path d="m96.16 92.04a80.24 80.24 0 0 1 68.222-79.225 81.116 81.116 0 0 0 -12-.895 80.217 80.217 0 0 0 -80.222 80.12c0 1.86.06 3.73.19 5.62l1.72 25.03a4.931 4.931 0 0 0 .16 1.02 6.261 6.261 0 0 0 3.23 4.13s19.2 4.51 19.29 3.4l1.026-12.83-1.426-20.75c-.13-1.89-.19-3.76-.19-5.62z" fill="#4a5160"/><path d="m309.94 391.24a54.486 54.486 0 0 1 42.476-53.14 54.476 54.476 0 1 0 0 106.265 54.483 54.483 0 0 1 -42.476-53.125z" fill="#9be147"/><path d="m340.42 398.389a6 6 0 0 1 -4.221-10.264l139.482-138.077a6 6 0 0 1 8.442 8.529l-139.482 138.076a5.98 5.98 0 0 1 -4.221 1.736z" fill="#d4e1f4"/><path d="m329.686 480.069a5.963 5.963 0 0 1 -.762-.048 90.865 90.865 0 0 1 -24.7-6.751 6 6 0 1 1 4.776-11.012 78.911 78.911 0 0 0 21.438 5.859 6 6 0 0 1 -.748 11.952zm23.9-.316a6 6 0 0 1 -.914-11.929 78.458 78.458 0 0 0 21.249-6.485 6 6 0 0 1 5.091 10.867 90.46 90.46 0 0 1 -24.5 7.475 5.977 5.977 0 0 1 -.925.072zm-67.353-18.513a5.97 5.97 0 0 1 -3.831-1.386 90.244 90.244 0 0 1 -17.182-19 6 6 0 1 1 9.953-6.7 78.273 78.273 0 0 0 14.9 16.476 6 6 0 0 1 -3.839 10.614zm110.244-1.567a6 6 0 0 1 -3.965-10.506 77.8 77.8 0 0 0 14.421-16.883 6 6 0 0 1 10.145 6.408 89.775 89.775 0 0 1 -16.642 19.487 5.978 5.978 0 0 1 -3.959 1.494zm-136.659-37.71a6 6 0 0 1 -5.723-4.2 88.237 88.237 0 0 1 -4.044-25.329 6 6 0 1 1 12-.153 76.274 76.274 0 0 0 3.494 21.888 6 6 0 0 1 -5.726 7.8zm161.9-2.324a6 6 0 0 1 -5.782-7.617 77.476 77.476 0 0 0 2.5-13.53c.23-2.43.346-4.891.346-7.316 0-.384 0-.774-.009-1.163a6 6 0 1 1 12-.182q.009.668.01 1.338c0 2.807-.134 5.648-.4 8.452a89.551 89.551 0 0 1 -2.894 15.631 6 6 0 0 1 -5.772 4.387zm-162.546-44.992a6 6 0 0 1 -5.778-7.63 88.5 88.5 0 0 1 10.47-23.415 6 6 0 1 1 10.136 6.432 76.407 76.407 0 0 0 -9.051 20.241 6 6 0 0 1 -5.777 4.372zm161.775-2.327a6 6 0 0 1 -5.719-4.191 77.135 77.135 0 0 0 -9.68-19.967 6 6 0 0 1 9.937-6.728 89.061 89.061 0 0 1 11.183 23.073 6 6 0 0 1 -5.721 7.813zm-136.442-37.651a6 6 0 0 1 -3.954-10.515 90.736 90.736 0 0 1 21.455-13.977 6 6 0 1 1 5.067 10.878 78.675 78.675 0 0 0 -18.619 12.13 5.977 5.977 0 0 1 -3.949 1.484zm105.912-4.9a5.968 5.968 0 0 1 -3.618-1.217 69.744 69.744 0 0 0 -14.677-8.519 6 6 0 1 1 4.713-11.035 81.665 81.665 0 0 1 17.208 9.987 6 6 0 0 1 -3.626 10.784zm-62.995-15.079a6 6 0 0 1 -.9-11.932 91.8 91.8 0 0 1 22.311-.645q1.643.153 3.255.353a6 6 0 1 1 -1.481 11.908q-1.428-.177-2.886-.313a79.686 79.686 0 0 0 -19.383.56 6.188 6.188 0 0 1 -.916.069z" fill="#de3c44"/></svg>